<svg width="86" height="85" viewBox="0 0 86 85" fill="none" xmlns="http://www.w3.org/2000/svg">
<circle cx="43.3335" cy="42.5" r="42.5" fill="url(#paint0_linear_910_1042)"/>
<path d="M37.396 30.2105C40.1929 29.1654 42.9128 31.9247 41.8827 34.7645L35.7832 51.5854C35.6482 51.9581 35.4229 52.2903 35.128 52.5514C34.8332 52.8124 34.4783 52.994 34.0961 53.0793C33.7138 53.1646 33.3166 53.1508 32.941 53.0393C32.5653 52.9278 32.2234 52.7222 31.9468 52.4414L19.9716 40.2926C19.6953 40.012 19.493 39.6653 19.3834 39.2845C19.2739 38.9037 19.2605 38.5011 19.3445 38.1137C19.4285 37.7263 19.6073 37.3665 19.8643 37.0676C20.1213 36.7687 20.4484 36.5401 20.8153 36.4031L37.396 30.2081V30.2105Z" fill="url(#paint1_linear_910_1042)"/>
<path d="M37.396 30.2105C40.1929 29.1654 42.9128 31.9247 41.8827 34.7645L35.7832 51.5854C35.6482 51.9581 35.4229 52.2903 35.128 52.5514C34.8332 52.8124 34.4783 52.994 34.0961 53.0793C33.7138 53.1646 33.3166 53.1508 32.941 53.0393C32.5653 52.9278 32.2234 52.7222 31.9468 52.4414L19.9716 40.2926C19.6953 40.012 19.493 39.6653 19.3834 39.2845C19.2739 38.9037 19.2605 38.5011 19.3445 38.1137C19.4285 37.7263 19.6073 37.3665 19.8643 37.0676C20.1213 36.7687 20.4484 36.5401 20.8153 36.4031L37.396 30.2081V30.2105Z" fill="url(#paint2_radial_910_1042)"/>
<path d="M37.396 30.2105C40.1929 29.1654 42.9128 31.9247 41.8827 34.7645L35.7832 51.5854C35.6482 51.9581 35.4229 52.2903 35.128 52.5514C34.8332 52.8124 34.4783 52.994 34.0961 53.0793C33.7138 53.1646 33.3166 53.1508 32.941 53.0393C32.5653 52.9278 32.2234 52.7222 31.9468 52.4414L19.9716 40.2926C19.6953 40.012 19.493 39.6653 19.3834 39.2845C19.2739 38.9037 19.2605 38.5011 19.3445 38.1137C19.4285 37.7263 19.6073 37.3665 19.8643 37.0676C20.1213 36.7687 20.4484 36.5401 20.8153 36.4031L37.396 30.2081V30.2105Z" fill="url(#paint3_linear_910_1042)"/>
<path d="M51.378 44.4019C54.1772 43.3568 56.8971 46.1161 55.8669 48.9559L49.7628 65.7768C49.6276 66.1491 49.4024 66.4808 49.1077 66.7416C48.813 67.0023 48.4584 67.1836 48.0766 67.2689C47.6947 67.3542 47.2978 67.3406 46.9225 67.2294C46.5471 67.1182 46.2054 66.9131 45.9287 66.6328L33.9535 54.484C33.6772 54.2034 33.4749 53.8567 33.3654 53.4759C33.2558 53.0951 33.2424 52.6925 33.3264 52.3051C33.4105 51.9177 33.5892 51.558 33.8462 51.259C34.1033 50.9601 34.4303 50.7316 34.7972 50.5945L51.378 44.3995V44.4019Z" fill="url(#paint4_linear_910_1042)"/>
<path d="M51.378 44.4019C54.1772 43.3568 56.8971 46.1161 55.8669 48.9559L49.7628 65.7768C49.6276 66.1491 49.4024 66.4808 49.1077 66.7416C48.813 67.0023 48.4584 67.1836 48.0766 67.2689C47.6947 67.3542 47.2978 67.3406 46.9225 67.2294C46.5471 67.1182 46.2054 66.9131 45.9287 66.6328L33.9535 54.484C33.6772 54.2034 33.4749 53.8567 33.3654 53.4759C33.2558 53.0951 33.2424 52.6925 33.3264 52.3051C33.4105 51.9177 33.5892 51.558 33.8462 51.259C34.1033 50.9601 34.4303 50.7316 34.7972 50.5945L51.378 44.3995V44.4019Z" fill="url(#paint5_radial_910_1042)"/>
<path d="M51.378 44.4019C54.1772 43.3568 56.8971 46.1161 55.8669 48.9559L49.7628 65.7768C49.6276 66.1491 49.4024 66.4808 49.1077 66.7416C48.813 67.0023 48.4584 67.1836 48.0766 67.2689C47.6947 67.3542 47.2978 67.3406 46.9225 67.2294C46.5471 67.1182 46.2054 66.9131 45.9287 66.6328L33.9535 54.484C33.6772 54.2034 33.4749 53.8567 33.3654 53.4759C33.2558 53.0951 33.2424 52.6925 33.3264 52.3051C33.4105 51.9177 33.5892 51.558 33.8462 51.259C34.1033 50.9601 34.4303 50.7316 34.7972 50.5945L51.378 44.3995V44.4019Z" fill="url(#paint6_radial_910_1042)"/>
<g filter="url(#filter0_d_910_1042)">
<path d="M64.9402 6.17342C65.004 6.14776 65.0738 6.14171 65.141 6.156C65.2081 6.1703 65.2696 6.20431 65.3178 6.25382L79.0341 20.2752C79.0825 20.3244 79.1156 20.3869 79.1293 20.455C79.143 20.5231 79.1366 20.5938 79.111 20.6583C75.8247 28.8394 71.2961 37.5407 65.2339 43.6931C59.3279 49.6847 49.3384 54.7896 40.3185 58.5444L27.5205 45.5586C31.2217 36.4081 36.2537 26.2763 42.1598 20.2847C48.243 14.1134 56.8526 9.50971 64.9379 6.17579L64.9402 6.17342Z" fill="url(#paint7_linear_910_1042)"/>
<path d="M64.9402 6.17342C65.004 6.14776 65.0738 6.14171 65.141 6.156C65.2081 6.1703 65.2696 6.20431 65.3178 6.25382L79.0341 20.2752C79.0825 20.3244 79.1156 20.3869 79.1293 20.455C79.143 20.5231 79.1366 20.5938 79.111 20.6583C75.8247 28.8394 71.2961 37.5407 65.2339 43.6931C59.3279 49.6847 49.3384 54.7896 40.3185 58.5444L27.5205 45.5586C31.2217 36.4081 36.2537 26.2763 42.1598 20.2847C48.243 14.1134 56.8526 9.50971 64.9379 6.17579L64.9402 6.17342Z" fill="url(#paint8_radial_910_1042)"/>
<path d="M64.9402 6.17342C65.004 6.14776 65.0738 6.14171 65.141 6.156C65.2081 6.1703 65.2696 6.20431 65.3178 6.25382L79.0341 20.2752C79.0825 20.3244 79.1156 20.3869 79.1293 20.455C79.143 20.5231 79.1366 20.5938 79.111 20.6583C75.8247 28.8394 71.2961 37.5407 65.2339 43.6931C59.3279 49.6847 49.3384 54.7896 40.3185 58.5444L27.5205 45.5586C31.2217 36.4081 36.2537 26.2763 42.1598 20.2847C48.243 14.1134 56.8526 9.50971 64.9379 6.17579L64.9402 6.17342Z" fill="url(#paint9_radial_910_1042)"/>
<path d="M64.9402 6.17342C65.004 6.14776 65.0738 6.14171 65.141 6.156C65.2081 6.1703 65.2696 6.20431 65.3178 6.25382L79.0341 20.2752C79.0825 20.3244 79.1156 20.3869 79.1293 20.455C79.143 20.5231 79.1366 20.5938 79.111 20.6583C75.8247 28.8394 71.2961 37.5407 65.2339 43.6931C59.3279 49.6847 49.3384 54.7896 40.3185 58.5444L27.5205 45.5586C31.2217 36.4081 36.2537 26.2763 42.1598 20.2847C48.243 14.1134 56.8526 9.50971 64.9379 6.17579L64.9402 6.17342Z" fill="url(#paint10_radial_910_1042)"/>
<path d="M64.9402 6.17342C65.004 6.14776 65.0738 6.14171 65.141 6.156C65.2081 6.1703 65.2696 6.20431 65.3178 6.25382L79.0341 20.2752C79.0825 20.3244 79.1156 20.3869 79.1293 20.455C79.143 20.5231 79.1366 20.5938 79.111 20.6583C75.8247 28.8394 71.2961 37.5407 65.2339 43.6931C59.3279 49.6847 49.3384 54.7896 40.3185 58.5444L27.5205 45.5586C31.2217 36.4081 36.2537 26.2763 42.1598 20.2847C48.243 14.1134 56.8526 9.50971 64.9379 6.17579L64.9402 6.17342Z" fill="url(#paint11_radial_910_1042)"/>
</g>
<g filter="url(#filter1_ddd_910_1042)">
<path d="M69.8356 23.9365C69.8535 24.9912 69.6643 26.039 69.2788 27.0186C68.8934 27.9983 68.3195 28.8903 67.5906 29.6426C66.8617 30.3949 65.9925 30.9924 65.0336 31.4003C64.0747 31.8082 63.0453 32.0182 62.0055 32.0182C60.9658 32.0182 59.9364 31.8082 58.9775 31.4003C58.0186 30.9924 57.1493 30.3949 56.4205 29.6426C55.6916 28.8903 55.1177 27.9983 54.7323 27.0186C54.3468 26.039 54.1575 24.9912 54.1755 23.9365C54.2109 21.8535 55.0514 19.868 56.516 18.4076C57.9806 16.9472 59.952 16.1289 62.0055 16.1289C64.0591 16.1289 66.0305 16.9472 67.4951 18.4076C68.9596 19.868 69.8002 21.8535 69.8356 23.9365Z" fill="url(#paint12_linear_910_1042)"/>
<path d="M69.8356 23.9365C69.8535 24.9912 69.6643 26.039 69.2788 27.0186C68.8934 27.9983 68.3195 28.8903 67.5906 29.6426C66.8617 30.3949 65.9925 30.9924 65.0336 31.4003C64.0747 31.8082 63.0453 32.0182 62.0055 32.0182C60.9658 32.0182 59.9364 31.8082 58.9775 31.4003C58.0186 30.9924 57.1493 30.3949 56.4205 29.6426C55.6916 28.8903 55.1177 27.9983 54.7323 27.0186C54.3468 26.039 54.1575 24.9912 54.1755 23.9365C54.2109 21.8535 55.0514 19.868 56.516 18.4076C57.9806 16.9472 59.952 16.1289 62.0055 16.1289C64.0591 16.1289 66.0305 16.9472 67.4951 18.4076C68.9596 19.868 69.8002 21.8535 69.8356 23.9365Z" fill="url(#paint13_radial_910_1042)"/>
</g>
<path d="M67.4253 23.9365C67.4403 24.6682 67.3112 25.3956 67.0455 26.076C66.7798 26.7564 66.383 27.3762 65.8782 27.899C65.3734 28.4218 64.7708 28.8372 64.1058 29.1207C63.4408 29.4043 62.7266 29.5504 62.0052 29.5504C61.2839 29.5504 60.5697 29.4043 59.9047 29.1207C59.2396 28.8372 58.6371 28.4218 58.1323 27.899C57.6275 27.3762 57.2307 26.7564 56.965 26.076C56.6993 25.3956 56.5702 24.6682 56.5851 23.9365C56.6146 22.498 57.1985 21.1284 58.2118 20.1215C59.225 19.1147 60.5869 18.5508 62.0052 18.5508C63.4236 18.5508 64.7854 19.1147 65.7987 20.1215C66.812 21.1284 67.3959 22.498 67.4253 23.9365Z" fill="url(#paint14_radial_910_1042)"/>
<g filter="url(#filter2_d_910_1042)">
<path d="M18.38 67.6114C16.7322 65.9397 17.3941 54.3443 23.2209 51.9798C23.2209 51.9798 29.0477 49.6153 32.8025 53.3985C36.5573 57.1816 34.8745 61.4377 34.8745 61.4377C33.2267 66.4528 26.2112 68.4461 25.3861 67.609C24.9316 67.1479 25.7497 66.3086 25.3861 65.9397C25.0225 65.5685 24.4585 65.9917 22.9156 66.7744C21.8155 67.3324 19.0396 68.2805 18.38 67.6114Z" fill="url(#paint15_radial_910_1042)"/>
<path d="M18.38 67.6114C16.7322 65.9397 17.3941 54.3443 23.2209 51.9798C23.2209 51.9798 29.0477 49.6153 32.8025 53.3985C36.5573 57.1816 34.8745 61.4377 34.8745 61.4377C33.2267 66.4528 26.2112 68.4461 25.3861 67.609C24.9316 67.1479 25.7497 66.3086 25.3861 65.9397C25.0225 65.5685 24.4585 65.9917 22.9156 66.7744C21.8155 67.3324 19.0396 68.2805 18.38 67.6114Z" fill="url(#paint16_radial_910_1042)"/>
</g>
<path d="M26.8568 47.3873C27.1815 47.0577 27.567 46.7962 27.9913 46.6179C28.4156 46.4395 28.8704 46.3477 29.3297 46.3477C29.789 46.3477 30.2438 46.4395 30.6681 46.6179C31.0924 46.7962 31.4779 47.0577 31.8026 47.3873L40.0417 55.7481C40.6674 56.4189 41.0106 57.3109 40.9981 58.2344C40.9857 59.1579 40.6186 60.04 39.9751 60.6932C39.3315 61.3464 38.4621 61.7192 37.5518 61.7323C36.6415 61.7453 35.7621 61.3977 35.1006 60.7632L26.8568 52.4047C26.5319 52.0753 26.2742 51.6842 26.0984 51.2538C25.9225 50.8233 25.832 50.3619 25.832 49.896C25.832 49.43 25.9225 48.9686 26.0984 48.5382C26.2742 48.1077 26.5319 47.7166 26.8568 47.3873Z" fill="url(#paint17_linear_910_1042)"/>
<path d="M26.8568 47.3873C27.1815 47.0577 27.567 46.7962 27.9913 46.6179C28.4156 46.4395 28.8704 46.3477 29.3297 46.3477C29.789 46.3477 30.2438 46.4395 30.6681 46.6179C31.0924 46.7962 31.4779 47.0577 31.8026 47.3873L40.0417 55.7481C40.6674 56.4189 41.0106 57.3109 40.9981 58.2344C40.9857 59.1579 40.6186 60.04 39.9751 60.6932C39.3315 61.3464 38.4621 61.7192 37.5518 61.7323C36.6415 61.7453 35.7621 61.3977 35.1006 60.7632L26.8568 52.4047C26.5319 52.0753 26.2742 51.6842 26.0984 51.2538C25.9225 50.8233 25.832 50.3619 25.832 49.896C25.832 49.43 25.9225 48.9686 26.0984 48.5382C26.2742 48.1077 26.5319 47.7166 26.8568 47.3873Z" fill="url(#paint18_radial_910_1042)"/>
<path d="M26.8568 47.3873C27.1815 47.0577 27.567 46.7962 27.9913 46.6179C28.4156 46.4395 28.8704 46.3477 29.3297 46.3477C29.789 46.3477 30.2438 46.4395 30.6681 46.6179C31.0924 46.7962 31.4779 47.0577 31.8026 47.3873L40.0417 55.7481C40.6674 56.4189 41.0106 57.3109 40.9981 58.2344C40.9857 59.1579 40.6186 60.04 39.9751 60.6932C39.3315 61.3464 38.4621 61.7192 37.5518 61.7323C36.6415 61.7453 35.7621 61.3977 35.1006 60.7632L26.8568 52.4047C26.5319 52.0753 26.2742 51.6842 26.0984 51.2538C25.9225 50.8233 25.832 50.3619 25.832 49.896C25.832 49.43 25.9225 48.9686 26.0984 48.5382C26.2742 48.1077 26.5319 47.7166 26.8568 47.3873Z" fill="url(#paint19_radial_910_1042)"/>
<path d="M80.7246 4.56637C78.5174 2.3272 74.6461 2.5802 71.8259 3.56383C69.698 4.30357 67.5888 5.0975 65.5003 5.94486C65.4647 5.95937 65.4331 5.98258 65.4084 6.01245C65.3838 6.04231 65.3668 6.07789 65.3589 6.11603C65.3511 6.15417 65.3526 6.19369 65.3635 6.23107C65.3743 6.26844 65.3941 6.30252 65.4211 6.33027L78.9626 20.1601C78.9898 20.187 79.023 20.2068 79.0595 20.2176C79.0959 20.2285 79.1345 20.2301 79.1717 20.2224C79.2089 20.2147 79.2437 20.1979 79.2731 20.1735C79.3024 20.149 79.3254 20.1177 79.3401 20.0821C80.1859 17.941 80.9778 15.7783 81.7151 13.5963C82.6707 10.7731 83.4399 7.32099 80.7246 4.56637Z" fill="url(#paint20_linear_910_1042)"/>
<path d="M80.7246 4.56637C78.5174 2.3272 74.6461 2.5802 71.8259 3.56383C69.698 4.30357 67.5888 5.0975 65.5003 5.94486C65.4647 5.95937 65.4331 5.98258 65.4084 6.01245C65.3838 6.04231 65.3668 6.07789 65.3589 6.11603C65.3511 6.15417 65.3526 6.19369 65.3635 6.23107C65.3743 6.26844 65.3941 6.30252 65.4211 6.33027L78.9626 20.1601C78.9898 20.187 79.023 20.2068 79.0595 20.2176C79.0959 20.2285 79.1345 20.2301 79.1717 20.2224C79.2089 20.2147 79.2437 20.1979 79.2731 20.1735C79.3024 20.149 79.3254 20.1177 79.3401 20.0821C80.1859 17.941 80.9778 15.7783 81.7151 13.5963C82.6707 10.7731 83.4399 7.32099 80.7246 4.56637Z" fill="url(#paint21_radial_910_1042)"/>
<path d="M80.7246 4.56637C78.5174 2.3272 74.6461 2.5802 71.8259 3.56383C69.698 4.30357 67.5888 5.0975 65.5003 5.94486C65.4647 5.95937 65.4331 5.98258 65.4084 6.01245C65.3838 6.04231 65.3668 6.07789 65.3589 6.11603C65.3511 6.15417 65.3526 6.19369 65.3635 6.23107C65.3743 6.26844 65.3941 6.30252 65.4211 6.33027L78.9626 20.1601C78.9898 20.187 79.023 20.2068 79.0595 20.2176C79.0959 20.2285 79.1345 20.2301 79.1717 20.2224C79.2089 20.2147 79.2437 20.1979 79.2731 20.1735C79.3024 20.149 79.3254 20.1177 79.3401 20.0821C80.1859 17.941 80.9778 15.7783 81.7151 13.5963C82.6707 10.7731 83.4399 7.32099 80.7246 4.56637Z" fill="url(#paint22_linear_910_1042)"/>
<path d="M44.3886 37.3042C47.1855 36.2591 49.9054 39.0185 48.8752 41.8582L42.7734 58.6792C42.6384 59.0518 42.4131 59.384 42.1183 59.6451C41.8234 59.9062 41.4685 60.0877 41.0863 60.173C40.7041 60.2583 40.3068 60.2446 39.9312 60.1331C39.5556 60.0216 39.2137 59.816 38.937 59.5351L26.9618 47.3864C26.6855 47.1057 26.4832 46.759 26.3737 46.3782C26.2641 45.9975 26.2507 45.5948 26.3347 45.2074C26.4188 44.82 26.5975 44.4603 26.8545 44.1614C27.1116 43.8624 27.4386 43.6339 27.8055 43.4968L44.3886 37.3019V37.3042Z" fill="url(#paint23_linear_910_1042)"/>
<path d="M44.3886 37.3042C47.1855 36.2591 49.9054 39.0185 48.8752 41.8582L42.7734 58.6792C42.6384 59.0518 42.4131 59.384 42.1183 59.6451C41.8234 59.9062 41.4685 60.0877 41.0863 60.173C40.7041 60.2583 40.3068 60.2446 39.9312 60.1331C39.5556 60.0216 39.2137 59.816 38.937 59.5351L26.9618 47.3864C26.6855 47.1057 26.4832 46.759 26.3737 46.3782C26.2641 45.9975 26.2507 45.5948 26.3347 45.2074C26.4188 44.82 26.5975 44.4603 26.8545 44.1614C27.1116 43.8624 27.4386 43.6339 27.8055 43.4968L44.3886 37.3019V37.3042Z" fill="url(#paint24_radial_910_1042)"/>
<path d="M44.3886 37.3042C47.1855 36.2591 49.9054 39.0185 48.8752 41.8582L42.7734 58.6792C42.6384 59.0518 42.4131 59.384 42.1183 59.6451C41.8234 59.9062 41.4685 60.0877 41.0863 60.173C40.7041 60.2583 40.3068 60.2446 39.9312 60.1331C39.5556 60.0216 39.2137 59.816 38.937 59.5351L26.9618 47.3864C26.6855 47.1057 26.4832 46.759 26.3737 46.3782C26.2641 45.9975 26.2507 45.5948 26.3347 45.2074C26.4188 44.82 26.5975 44.4603 26.8545 44.1614C27.1116 43.8624 27.4386 43.6339 27.8055 43.4968L44.3886 37.3019V37.3042Z" fill="url(#paint25_radial_910_1042)"/>
<path d="M44.3886 37.3042C47.1855 36.2591 49.9054 39.0185 48.8752 41.8582L42.7734 58.6792C42.6384 59.0518 42.4131 59.384 42.1183 59.6451C41.8234 59.9062 41.4685 60.0877 41.0863 60.173C40.7041 60.2583 40.3068 60.2446 39.9312 60.1331C39.5556 60.0216 39.2137 59.816 38.937 59.5351L26.9618 47.3864C26.6855 47.1057 26.4832 46.759 26.3737 46.3782C26.2641 45.9975 26.2507 45.5948 26.3347 45.2074C26.4188 44.82 26.5975 44.4603 26.8545 44.1614C27.1116 43.8624 27.4386 43.6339 27.8055 43.4968L44.3886 37.3019V37.3042Z" fill="url(#paint26_radial_910_1042)"/>
<g filter="url(#filter3_f_910_1042)">
<path d="M34.187 49.9086L47.2973 39.4883L38.8485 54.7108L34.187 49.9086Z" fill="url(#paint27_linear_910_1042)"/>
</g>
<defs>
<filter id="filter0_d_910_1042" x="25.7705" y="4.14844" width="54.6157" height="55.3945" filterUnits="userSpaceOnUse" color-interpolation-filters="sRGB">
<feFlood flood-opacity="0" result="BackgroundImageFix"/>
<feColorMatrix in="SourceAlpha" type="matrix" values="0 0 0 0 0 0 0 0 0 0 0 0 0 0 0 0 0 0 127 0" result="hardAlpha"/>
<feOffset dx="-0.25" dy="-0.5"/>
<feGaussianBlur stdDeviation="0.75"/>
<feComposite in2="hardAlpha" operator="out"/>
<feColorMatrix type="matrix" values="0 0 0 0 0.745098 0 0 0 0 0.772549 0 0 0 0 0.952941 0 0 0 1 0"/>
<feBlend mode="normal" in2="BackgroundImageFix" result="effect1_dropShadow_910_1042"/>
<feBlend mode="normal" in="SourceGraphic" in2="effect1_dropShadow_910_1042" result="shape"/>
</filter>
<filter id="filter1_ddd_910_1042" x="53.1743" y="15.3789" width="17.6626" height="17.8906" filterUnits="userSpaceOnUse" color-interpolation-filters="sRGB">
<feFlood flood-opacity="0" result="BackgroundImageFix"/>
<feColorMatrix in="SourceAlpha" type="matrix" values="0 0 0 0 0 0 0 0 0 0 0 0 0 0 0 0 0 0 127 0" result="hardAlpha"/>
<feOffset dy="0.25"/>
<feGaussianBlur stdDeviation="0.5"/>
<feComposite in2="hardAlpha" operator="out"/>
<feColorMatrix type="matrix" values="0 0 0 0 0.866667 0 0 0 0 0.764706 0 0 0 0 0.847059 0 0 0 1 0"/>
<feBlend mode="normal" in2="BackgroundImageFix" result="effect1_dropShadow_910_1042"/>
<feColorMatrix in="SourceAlpha" type="matrix" values="0 0 0 0 0 0 0 0 0 0 0 0 0 0 0 0 0 0 127 0" result="hardAlpha"/>
<feOffset dx="-0.1" dy="0.1"/>
<feGaussianBlur stdDeviation="0.05"/>
<feComposite in2="hardAlpha" operator="out"/>
<feColorMatrix type="matrix" values="0 0 0 0 0.721569 0 0 0 0 0.690196 0 0 0 0 0.701961 0 0 0 1 0"/>
<feBlend mode="normal" in2="effect1_dropShadow_910_1042" result="effect2_dropShadow_910_1042"/>
<feColorMatrix in="SourceAlpha" type="matrix" values="0 0 0 0 0 0 0 0 0 0 0 0 0 0 0 0 0 0 127 0" result="hardAlpha"/>
<feOffset dx="0.1" dy="-0.1"/>
<feGaussianBlur stdDeviation="0.05"/>
<feComposite in2="hardAlpha" operator="out"/>
<feColorMatrix type="matrix" values="0 0 0 0 0.615686 0 0 0 0 0.560784 0 0 0 0 0.65098 0 0 0 1 0"/>
<feBlend mode="normal" in2="effect2_dropShadow_910_1042" result="effect3_dropShadow_910_1042"/>
<feBlend mode="normal" in="SourceGraphic" in2="effect3_dropShadow_910_1042" result="shape"/>
</filter>
<filter id="filter2_d_910_1042" x="17.1977" y="50.65" width="18.4528" height="17.3898" filterUnits="userSpaceOnUse" color-interpolation-filters="sRGB">
<feFlood flood-opacity="0" result="BackgroundImageFix"/>
<feColorMatrix in="SourceAlpha" type="matrix" values="0 0 0 0 0 0 0 0 0 0 0 0 0 0 0 0 0 0 127 0" result="hardAlpha"/>
<feOffset dy="-0.2"/>
<feGaussianBlur stdDeviation="0.2"/>
<feComposite in2="hardAlpha" operator="out"/>
<feColorMatrix type="matrix" values="0 0 0 0 0.847059 0 0 0 0 0.505882 0 0 0 0 0.360784 0 0 0 1 0"/>
<feBlend mode="normal" in2="BackgroundImageFix" result="effect1_dropShadow_910_1042"/>
<feBlend mode="normal" in="SourceGraphic" in2="effect1_dropShadow_910_1042" result="shape"/>
</filter>
<filter id="filter3_f_910_1042" x="33.187" y="38.4883" width="15.1104" height="17.2227" filterUnits="userSpaceOnUse" color-interpolation-filters="sRGB">
<feFlood flood-opacity="0" result="BackgroundImageFix"/>
<feBlend mode="normal" in="SourceGraphic" in2="BackgroundImageFix" result="shape"/>
<feGaussianBlur stdDeviation="0.5" result="effect1_foregroundBlur_910_1042"/>
</filter>
<linearGradient id="paint0_linear_910_1042" x1="-42.3355" y1="8.38194" x2="21.4145" y2="55.5255" gradientUnits="userSpaceOnUse">
<stop stop-color="#FFE2D0"/>
<stop offset="1" stop-color="#FCF9E8"/>
</linearGradient>
<linearGradient id="paint1_linear_910_1042" x1="31.6368" y1="38.699" x2="19.9745" y2="36.8045" gradientUnits="userSpaceOnUse">
<stop stop-color="#EE2452"/>
<stop offset="1" stop-color="#F63E7A"/>
</linearGradient>
<radialGradient id="paint2_radial_910_1042" cx="0" cy="0" r="1" gradientUnits="userSpaceOnUse" gradientTransform="translate(18.3214 38.1197) rotate(-20.2234) scale(18.6814 3.21132)">
<stop offset="0.164" stop-color="#FF8DB0"/>
<stop offset="1" stop-color="#FF8DB0" stop-opacity="0"/>
</radialGradient>
<linearGradient id="paint3_linear_910_1042" x1="24.1645" y1="44.4328" x2="26.0907" y2="42.5808" gradientUnits="userSpaceOnUse">
<stop offset="0.491" stop-color="#DD467C"/>
<stop offset="1" stop-color="#DD467C" stop-opacity="0"/>
</linearGradient>
<linearGradient id="paint4_linear_910_1042" x1="54.4335" y1="49.0221" x2="39.7828" y2="60.3537" gradientUnits="userSpaceOnUse">
<stop stop-color="#F83267"/>
<stop offset="1" stop-color="#FF3190"/>
</linearGradient>
<radialGradient id="paint5_radial_910_1042" cx="0" cy="0" r="1" gradientUnits="userSpaceOnUse" gradientTransform="translate(46.7131 50.2768) rotate(86.5321) scale(18.0615 15.3511)">
<stop offset="0.757" stop-color="#E76CBE" stop-opacity="0"/>
<stop offset="0.951" stop-color="#E76CBE"/>
</radialGradient>
<radialGradient id="paint6_radial_910_1042" cx="0" cy="0" r="1" gradientUnits="userSpaceOnUse" gradientTransform="translate(44.0898 59.8089) rotate(-57.7192) scale(12.4105 5.41819)">
<stop stop-color="#FF5898"/>
<stop offset="1" stop-color="#FF5898" stop-opacity="0"/>
</radialGradient>
<linearGradient id="paint7_linear_910_1042" x1="44.1642" y1="18.2843" x2="65" y2="38.9694" gradientUnits="userSpaceOnUse">
<stop stop-color="#CCBBC0"/>
<stop offset="1" stop-color="#EAD2EC"/>
</linearGradient>
<radialGradient id="paint8_radial_910_1042" cx="0" cy="0" r="1" gradientUnits="userSpaceOnUse" gradientTransform="translate(68.5995 48.798) rotate(-142.048) scale(39.0793 73.724)">
<stop offset="0.811" stop-color="#E7E5E5" stop-opacity="0"/>
<stop offset="1" stop-color="#E7E5E5"/>
</radialGradient>
<radialGradient id="paint9_radial_910_1042" cx="0" cy="0" r="1" gradientUnits="userSpaceOnUse" gradientTransform="translate(34.1304 48.1667) rotate(-57.3047) scale(23.0829 10.7849)">
<stop offset="0.281" stop-color="#B5A3A5"/>
<stop offset="1" stop-color="#B5A3A5" stop-opacity="0"/>
</radialGradient>
<radialGradient id="paint10_radial_910_1042" cx="0" cy="0" r="1" gradientUnits="userSpaceOnUse" gradientTransform="translate(27.5189 45.2838) rotate(-73.8465) scale(20.527 3.43633)">
<stop offset="0.208" stop-color="#B28F96"/>
<stop offset="1" stop-color="#B28F96" stop-opacity="0"/>
</radialGradient>
<radialGradient id="paint11_radial_910_1042" cx="0" cy="0" r="1" gradientUnits="userSpaceOnUse" gradientTransform="translate(75.9179 14.591) rotate(136.873) scale(30.9127 9.60807)">
<stop stop-color="#FAECF1"/>
<stop offset="1" stop-color="#FAECF1" stop-opacity="0"/>
</radialGradient>
<linearGradient id="paint12_linear_910_1042" x1="54.1755" y1="22.5864" x2="69.8388" y2="23.8985" gradientUnits="userSpaceOnUse">
<stop stop-color="#A796A0"/>
<stop offset="1" stop-color="#A5959F"/>
</linearGradient>
<radialGradient id="paint13_radial_910_1042" cx="0" cy="0" r="1" gradientUnits="userSpaceOnUse" gradientTransform="translate(62.009 23.9365) rotate(90) scale(7.9432 7.82978)">
<stop offset="0.587" stop-color="#93859B"/>
<stop offset="1" stop-color="#93859B" stop-opacity="0"/>
</radialGradient>
<radialGradient id="paint14_radial_910_1042" cx="0" cy="0" r="1" gradientUnits="userSpaceOnUse" gradientTransform="translate(62.0041 29.4363) rotate(-90) scale(11.4573 10.3863)">
<stop stop-color="#72CDFF"/>
<stop offset="0.738" stop-color="#66ACFF"/>
<stop offset="1" stop-color="#3B57F4"/>
</radialGradient>
<radialGradient id="paint15_radial_910_1042" cx="0" cy="0" r="1" gradientUnits="userSpaceOnUse" gradientTransform="translate(31.8236 55.1127) rotate(134.588) scale(13.6316 10.7136)">
<stop stop-color="#D46213"/>
<stop offset="1" stop-color="#FF9542"/>
</radialGradient>
<radialGradient id="paint16_radial_910_1042" cx="0" cy="0" r="1" gradientUnits="userSpaceOnUse" gradientTransform="translate(32.087 66.2802) rotate(-130.778) scale(16.8595 17.7314)">
<stop offset="0.871" stop-color="#FFC484" stop-opacity="0"/>
<stop offset="1" stop-color="#FFC484"/>
</radialGradient>
<linearGradient id="paint17_linear_910_1042" x1="26.2462" y1="49.6832" x2="39.2462" y2="62.2786" gradientUnits="userSpaceOnUse">
<stop stop-color="#452860"/>
<stop offset="1" stop-color="#51509F"/>
</linearGradient>
<radialGradient id="paint18_radial_910_1042" cx="0" cy="0" r="1" gradientUnits="userSpaceOnUse" gradientTransform="translate(28.6515 48.5009) rotate(77.9973) scale(3.85262 3.35952)">
<stop stop-color="#8E839A"/>
<stop offset="1" stop-color="#8E839A" stop-opacity="0"/>
</radialGradient>
<radialGradient id="paint19_radial_910_1042" cx="0" cy="0" r="1" gradientUnits="userSpaceOnUse" gradientTransform="translate(29.5301 50.7827) rotate(48.3452) scale(14.5951 7.63844)">
<stop offset="0.86" stop-color="#6175B9" stop-opacity="0"/>
<stop offset="1" stop-color="#6175B9"/>
</radialGradient>
<linearGradient id="paint20_linear_910_1042" x1="80.7362" y1="4.57819" x2="72.0453" y2="13.145" gradientUnits="userSpaceOnUse">
<stop stop-color="#FF3745"/>
<stop offset="1" stop-color="#ED224B"/>
</linearGradient>
<radialGradient id="paint21_radial_910_1042" cx="0" cy="0" r="1" gradientUnits="userSpaceOnUse" gradientTransform="translate(79.7153 8.05854) rotate(134.588) scale(19.3606 4.64719)">
<stop offset="0.189" stop-color="#FF5971"/>
<stop offset="1" stop-color="#FF5971" stop-opacity="0"/>
</radialGradient>
<linearGradient id="paint22_linear_910_1042" x1="72.9167" y1="13.8493" x2="73.7849" y2="12.9562" gradientUnits="userSpaceOnUse">
<stop stop-color="#D2575E"/>
<stop offset="1" stop-color="#F93251" stop-opacity="0"/>
</linearGradient>
<linearGradient id="paint23_linear_910_1042" x1="48.0665" y1="38.1247" x2="32.732" y2="53.2402" gradientUnits="userSpaceOnUse">
<stop stop-color="#FF2644"/>
<stop offset="1" stop-color="#FF2982"/>
</linearGradient>
<radialGradient id="paint24_radial_910_1042" cx="0" cy="0" r="1" gradientUnits="userSpaceOnUse" gradientTransform="translate(27.2671 43.6978) rotate(-21.1407) scale(17.4142 4.60788)">
<stop stop-color="#FF95AF"/>
<stop offset="1" stop-color="#FF95AF" stop-opacity="0"/>
</radialGradient>
<radialGradient id="paint25_radial_910_1042" cx="0" cy="0" r="1" gradientUnits="userSpaceOnUse" gradientTransform="translate(25.314 45.7927) rotate(45.1164) scale(10.8224 3.19699)">
<stop offset="0.382" stop-color="#E14678"/>
<stop offset="1" stop-color="#E14678" stop-opacity="0"/>
</radialGradient>
<radialGradient id="paint26_radial_910_1042" cx="0" cy="0" r="1" gradientUnits="userSpaceOnUse" gradientTransform="translate(39.7225 43.031) rotate(84.7499) scale(17.5115 18.3991)">
<stop offset="0.832" stop-color="#E67BC7" stop-opacity="0"/>
<stop offset="1" stop-color="#E67BC7"/>
</radialGradient>
<linearGradient id="paint27_linear_910_1042" x1="45.3302" y1="40.5972" x2="35.5715" y2="50.655" gradientUnits="userSpaceOnUse">
<stop stop-color="#FF5970"/>
<stop offset="1" stop-color="#FF5794"/>
</linearGradient>
</defs>
</svg>
