<svg version="1.2" xmlns="http://www.w3.org/2000/svg" viewBox="0 0 43 44" width="43" height="44">
	<title>Instagrame-svg</title>
	<defs>
		<linearGradient id="g1" x1="5" y1="39.6" x2="39.2" y2="4.7" gradientUnits="userSpaceOnUse">
			<stop offset="0" stop-color="#c16010"/>
			<stop offset=".3" stop-color="#cea126"/>
			<stop offset=".6" stop-color="#b40755"/>
			<stop offset=".8" stop-color="#5f0c91"/>
			<stop offset="1" stop-color="#2a35b9"/>
		</linearGradient>
		<filter x="-50%" y="-50%" width="200%" height="200%" id="f1"> <feGaussianBlur stdDeviation="2.5"/> </filter>
		<linearGradient id="g2" x1="3.6" y1="44.5" x2="38" y2="4.6" gradientUnits="userSpaceOnUse">
			<stop offset="0" stop-color="#f58529"/>
			<stop offset=".2" stop-color="#ffdb77"/>
			<stop offset=".5" stop-color="#dd2a7b"/>
			<stop offset=".8" stop-color="#8134af"/>
			<stop offset="1" stop-color="#515bd4"/>
		</linearGradient>
		<linearGradient id="g3" x1="21.8" y1="16.1" x2="21.8" y2="27.4" gradientUnits="userSpaceOnUse">
			<stop offset="0" stop-color="#ffffff"/>
			<stop offset="1" stop-color="#ffffff" stop-opacity="0"/>
		</linearGradient>
		<linearGradient id="g4" x1="27.6" y1="14.7" x2="27.6" y2="17.3" gradientUnits="userSpaceOnUse">
			<stop offset="0" stop-color="#ffffff"/>
			<stop offset="1" stop-color="#ffffff" stop-opacity="0"/>
		</linearGradient>
		<linearGradient id="g5" x1="21.8" y1="10.9" x2="21.8" y2="32.6" gradientUnits="userSpaceOnUse">
			<stop offset="0" stop-color="#ffffff"/>
			<stop offset="1" stop-color="#ffffff" stop-opacity="0"/>
		</linearGradient>
	</defs>
	<style>
		.s0 { fill: url(#g1) } 
		.s1 { filter: url(#f1);fill: url(#g2) } 
		.s2 { opacity: .3;filter: url(#f1);fill: #000000 } 
		.s3 { opacity: .9;fill: #ffffff;stroke: url(#g3);stroke-width: .5 } 
		.s4 { opacity: .9;fill: #ffffff;stroke: url(#g4);stroke-width: .5 } 
		.s5 { opacity: .9;fill: #ffffff;stroke: url(#g5);stroke-width: .5 } 
	</style>
	<g id="Layer">
		<path id="Layer" class="s0" d="m1.5 22c0-11 9-20 20-20 11 0 20 9 20 20 0 11-9 20-20 20-11 0-20-9-20-20z"/>
		<g id="Layer">
			<path id="Layer" class="s1" d="m2 22c0-10.8 8.7-19.5 19.5-19.5 10.8 0 19.5 8.7 19.5 19.5 0 10.8-8.7 19.5-19.5 19.5-10.8 0-19.5-8.7-19.5-19.5z"/>
		</g>
		<g id="Layer">
			<path id="Layer" fill-rule="evenodd" class="s2" d="m26.1 22.8c0 3.1-2.5 5.6-5.6 5.6-3.1 0-5.6-2.5-5.6-5.6 0-3.1 2.5-5.6 5.6-5.6 3.1 0 5.6 2.5 5.6 5.6zm-2 0c0-2-1.6-3.6-3.6-3.6-2 0-3.6 1.6-3.6 3.6 0 2 1.6 3.6 3.6 3.6 2 0 3.6-1.6 3.6-3.6z"/>
			<path id="Layer" class="s2" d="m25.1 17.1c0-0.8 0.5-1.3 1.2-1.3 0.7 0 1.3 0.5 1.3 1.3 0 0.7-0.6 1.2-1.3 1.2-0.7 0-1.2-0.5-1.2-1.2z"/>
			<path id="Layer" fill-rule="evenodd" class="s2" d="m31.4 18.3v9c0 1.9-0.6 3.5-1.8 4.7-1.2 1.1-2.7 1.7-4.6 1.7h-9c-1.7 0-3.3-0.6-4.5-1.7-1.2-1.2-1.8-2.8-1.8-4.7v-9c0-3.8 2.5-6.3 6.3-6.3h9c1.9 0 3.5 0.6 4.6 1.8 1.2 1.1 1.8 2.7 1.8 4.5zm-2 0c0-1.2-0.4-2.3-1.1-3.1-0.8-0.8-1.9-1.2-3.2-1.2h-9.1c-1.3 0-2.4 0.4-3.1 1.1-0.8 0.8-1.2 1.9-1.2 3.2v9q0 2 1.2 3.2c0.7 0.8 1.8 1.2 3.1 1.2h9c1.3 0 2.4-0.4 3.2-1.2 0.8-0.7 1.2-1.8 1.2-3.2z"/>
		</g>
		<path id="Layer" fill-rule="evenodd" class="s3" d="m16.5 21.7c0-2.9 2.4-5.3 5.3-5.3 2.9 0 5.4 2.4 5.4 5.3 0 3-2.4 5.4-5.4 5.4-3 0-5.3-2.4-5.3-5.4zm1.5 0c0 2.2 1.7 3.9 3.8 3.9 2.1 0 3.9-1.7 3.9-3.9 0-2.1-1.8-3.8-3.9-3.8-2.1 0-3.8 1.7-3.8 3.8z"/>
		<path id="Layer" class="s4" d="m28.7 16c0 0.6-0.5 1-1.1 1-0.5 0-1-0.4-1-1 0-0.6 0.5-1 1-1 0.6 0 1.1 0.4 1.1 1z"/>
		<path id="Layer" fill-rule="evenodd" class="s5" d="m30.7 12.9c1.1 1.1 1.7 2.6 1.7 4.4v9c0 1.8-0.6 3.4-1.7 4.5-1.1 1-2.6 1.6-4.4 1.6h-9c-1.7 0-3.2-0.6-4.3-1.6-1.2-1.2-1.8-2.7-1.8-4.5v-9c0-1.9 0.6-3.4 1.7-4.4 1-1.1 2.6-1.7 4.4-1.7h9c1.8 0 3.4 0.6 4.4 1.7zm-16.7 16.8c0.8 0.8 2 1.2 3.3 1.2h9c1.3 0 2.5-0.4 3.3-1.2 0.9-0.8 1.4-2 1.4-3.4v-9c0-1.3-0.5-2.5-1.3-3.3-0.8-0.9-2-1.3-3.3-1.3h-9.1c-1.3 0-2.5 0.4-3.3 1.2-0.9 0.9-1.3 2-1.3 3.4v9c0 1.4 0.4 2.5 1.3 3.4z"/>
	</g>
</svg>