<svg version="1.2" xmlns="http://www.w3.org/2000/svg" viewBox="0 0 44 44" width="44" height="44">
	<title>linkedin-svg</title>
	<defs>
		<linearGradient id="g1" x1="21.7" y1="41" x2="22.5" y2="4.2" gradientUnits="userSpaceOnUse">
			<stop offset="0" stop-color="#004081"/>
			<stop offset="1" stop-color="#5ba9f8"/>
		</linearGradient>
		<filter x="-50%" y="-50%" width="200%" height="200%" id="f1"> <feGaussianBlur stdDeviation="2.5"/> </filter>
		<linearGradient id="g2" x1="22.5" y1="6.8" x2="22.5" y2="37.2" gradientUnits="userSpaceOnUse">
			<stop offset="0" stop-color="#0a66c2" stop-opacity=".6"/>
			<stop offset="1" stop-color="#0a66c2"/>
		</linearGradient>
		<linearGradient id="g3" x1="22.5" y1="2.5" x2="22.5" y2="41.5" gradientUnits="userSpaceOnUse">
			<stop offset="0" stop-color="#59acff"/>
			<stop offset="1" stop-color="#013162"/>
		</linearGradient>
		<filter x="-50%" y="-50%" width="200%" height="200%" id="f2"> <feGaussianBlur stdDeviation="5"/> </filter>
		<clipPath clipPathUnits="userSpaceOnUse" id="cp1">
			<path d="m17.56 12.78c0 1.36-1.16 2.47-2.59 2.47-1.44 0-2.6-1.11-2.6-2.47 0-1.36 1.16-2.47 2.6-2.47 1.43 0 2.59 1.11 2.59 2.47zm-5.19 19.87h4.79v-16.1h-4.79zm17.55 0h4.79v-9.1c0-2.17-0.51-3.72-1.52-4.88-1.01-1.15-2.34-1.61-3.97-1.61-2.15 0-3.72 1.09-4.7 2.7h-0.1l-0.29-3.22h-3.78c0.06 1.61 0 16.11 0 16.11h4.78v-10.09q0.58-1.87 2.43-1.87 2.36-0.01 2.36 3.35z"/>
		</clipPath>
		<linearGradient id="g4" x1="23.5" y1="10.3" x2="23.5" y2="32.7" gradientUnits="userSpaceOnUse">
			<stop offset="0" stop-color="#ffffff"/>
			<stop offset="1" stop-color="#ffffff" stop-opacity="0"/>
		</linearGradient>
	</defs>
	<style>
		.s0 { fill: url(#g1) } 
		.s1 { filter: url(#f1);fill: url(#g2) } 
		.s2 { filter: url(#f1);fill: none;stroke: url(#g3);stroke-width: .5 } 
		.s3 { filter: url(#f2);fill: #0b4c8c } 
		.s4 { fill: #ffffff } 
		.s5 { fill: url(#g4) } 
	</style>
	<g id="Layer">
		<path id="Layer" class="s0" d="m2.5 22c0-11 9-20 20-20 11 0 20 9 20 20 0 11-9 20-20 20-11 0-20-9-20-20z"/>
		<g id="Layer">
			<path id="Layer" class="s1" d="m3 22c0-10.8 8.7-19.5 19.5-19.5 10.8 0 19.5 8.7 19.5 19.5 0 10.8-8.7 19.5-19.5 19.5-10.8 0-19.5-8.7-19.5-19.5z"/>
			<path id="Layer" class="s2" d="m3.3 22c0-10.6 8.6-19.2 19.2-19.2 10.6 0 19.2 8.6 19.2 19.2 0 10.6-8.6 19.2-19.2 19.2-10.6 0-19.2-8.6-19.2-19.2z"/>
		</g>
		<g id="Layer">
			<path id="Layer" fill-rule="evenodd" class="s3" d="m15.5 14.1c0 1.3-1.2 2.4-2.6 2.4-1.4 0-2.6-1.1-2.6-2.4 0-1.4 1.2-2.5 2.6-2.5 1.4 0 2.6 1.1 2.6 2.5zm-5.2 19.8h4.8v-16.1h-4.8zm17.5 0h4.8v-9.1c0-2.1-0.5-3.7-1.5-4.8-1-1.2-2.3-1.6-4-1.6-2.1 0-3.7 1-4.7 2.7h-0.1l-0.3-3.3h-3.7c0 1.6 0 16.1 0 16.1h4.8v-10q0.5-1.9 2.4-1.9 2.3 0 2.3 3.3z"/>
		</g>
		<path id="Layer" fill-rule="evenodd" class="s4" d="m17.6 12.8c0 1.3-1.2 2.4-2.6 2.4-1.5 0-2.6-1.1-2.6-2.4 0-1.4 1.1-2.5 2.6-2.5 1.4 0 2.6 1.1 2.6 2.5zm-5.2 19.9h4.8v-16.2h-4.8zm17.5 0h4.8v-9c0-2.2-0.5-3.8-1.5-4.9-1-1.2-2.3-1.6-4-1.6-2.1 0-3.7 1.1-4.7 2.7h-0.1l-0.3-3.3h-3.8c0.1 1.7 0 16.1 0 16.1h4.8v-10q0.6-1.9 2.5-1.9 2.3 0 2.3 3.3z"/>
		<g id="Clip-Path" clip-path="url(#cp1)">
			<path id="Layer" fill-rule="evenodd" class="s5" d="m17.7 33.2h-5.8v-17.2h5.8zm-1-1v-15.1h-3.8v15.1zm18.5 1h-5.8v-9.1c0-1-0.2-1.8-0.5-2.2-0.3-0.4-0.7-0.6-1.3-0.6q-0.8 0-1.2 0.3-0.5 0.4-0.8 1.1v10.5h-5.7v-0.5q0 0 0 0 0 0 0 0 0 0 0 0 0 0 0 0 0 0 0-0.1 0-0.2 0-0.5 0-0.6 0-1.6c0-1.4 0-3.3 0-5.2 0-3.8 0-7.8 0-8.6l-0.1-0.6h4.8v0.5l0.2 2c1.1-1.2 2.6-1.9 4.4-1.9 1.8 0 3.2 0.5 4.4 1.7 1.1 1.3 1.6 3 1.6 5.3zm-1-1v-8.6c0-2.1-0.5-3.6-1.4-4.6l0.4-0.3-0.1 0.1-0.3 0.2c-0.9-1-2-1.4-3.6-1.4-1.9 0-3.3 0.9-4.2 2.4l-0.2 0.3h-0.8l-0.1-0.5-0.2-2.8h-2.8c0 1.5 0 4.9 0 8.2 0 1.9 0 3.8 0 5.2q0 1 0 1.6 0 0.1 0 0.2h3.7v-9.7l0.1-0.1 0.4 0.2-0.4-0.2q0.3-1 1-1.6 0.8-0.6 1.9-0.6c0.9 0 1.6 0.3 2.2 1 0.4 0.7 0.6 1.7 0.6 2.9v8.1zm-19.2-16.4c-1.7 0-3.1-1.4-3.1-3 0-1.7 1.4-3 3.1-3 1.7 0 3.1 1.3 3.1 3 0 1.6-1.4 3-3.1 3zm-2.1-3c0 1 0.9 2 2.1 2 1.2 0 2.1-1 2.1-2 0-1.1-0.9-2-2.1-2-1.2 0-2.1 0.9-2.1 2z"/>
		</g>
	</g>
</svg>