<svg version="1.2" xmlns="http://www.w3.org/2000/svg" viewBox="0 0 43 44" width="43" height="44">
	<title>Youtube-svg</title>
	<defs>
		<linearGradient id="g1" x1="20.7" y1="41" x2="21.5" y2="4.2" gradientUnits="userSpaceOnUse">
			<stop offset="0" stop-color="#a70000"/>
			<stop offset="1" stop-color="#ff9191"/>
		</linearGradient>
		<filter x="-50%" y="-50%" width="200%" height="200%" id="f1"> <feGaussianBlur stdDeviation="2.5"/> </filter>
		<linearGradient id="g2" x1="21.5" y1="6.8" x2="21.5" y2="37.2" gradientUnits="userSpaceOnUse">
			<stop offset="0" stop-color="#ff0000" stop-opacity=".7"/>
			<stop offset="1" stop-color="#ff0000"/>
		</linearGradient>
		<linearGradient id="g3" x1="21.5" y1="2.5" x2="21.5" y2="41.5" gradientUnits="userSpaceOnUse">
			<stop offset="0" stop-color="#ff8888"/>
			<stop offset="1" stop-color="#d60000"/>
		</linearGradient>
		<filter x="-50%" y="-50%" width="200%" height="200%" id="f2"> <feGaussianBlur stdDeviation="5"/> </filter>
		<linearGradient id="g4" x1="21.4" y1="13.7" x2="21.4" y2="30.3" gradientUnits="userSpaceOnUse">
			<stop offset="0" stop-color="#ffffff"/>
			<stop offset="1" stop-color="#ffffff" stop-opacity="0"/>
		</linearGradient>
	</defs>
	<style>
		.s0 { fill: url(#g1) } 
		.s1 { filter: url(#f1);fill: url(#g2) } 
		.s2 { filter: url(#f1);fill: none;stroke: url(#g3);stroke-width: .5 } 
		.s3 { filter: url(#f2);fill: #9b0000 } 
		.s4 { fill: #ffffff;stroke: url(#g4);stroke-width: .5 } 
	</style>
	<g id="Layer">
		<path id="Layer" class="s0" d="m1.5 22c0-11 9-20 20-20 11 0 20 9 20 20 0 11-9 20-20 20-11 0-20-9-20-20z"/>
		<g id="Layer">
			<path id="Layer" class="s1" d="m2 22c0-10.8 8.7-19.5 19.5-19.5 10.8 0 19.5 8.7 19.5 19.5 0 10.8-8.7 19.5-19.5 19.5-10.8 0-19.5-8.7-19.5-19.5z"/>
			<path id="Layer" class="s2" d="m2.3 22c0-10.6 8.6-19.2 19.2-19.2 10.6 0 19.2 8.6 19.2 19.2 0 10.6-8.6 19.2-19.2 19.2-10.6 0-19.2-8.6-19.2-19.2z"/>
		</g>
		<g id="Layer">
			<path id="Layer" fill-rule="evenodd" class="s3" d="m31.9 23c0 0 0 3.9-0.5 5.8-0.3 1-1.1 1.8-2.1 2.1-1.8 0.4-9.2 0.4-9.2 0.4 0 0-7.4 0-9.3-0.4-1-0.3-1.8-1.1-2.1-2.1-0.4-1.9-0.4-5.8-0.4-5.8 0 0 0-3.8 0.4-5.7 0.3-1 1.1-1.8 2.1-2.1 1.9-0.5 9.3-0.5 9.3-0.5 0 0 7.4 0 9.2 0.5 1 0.3 1.8 1.1 2.1 2.1 0.5 1.9 0.5 5.7 0.5 5.7zm-8.1 0l-6.1-3.5v7.1z"/>
		</g>
		<path id="Layer" fill-rule="evenodd" class="s4" d="m32.5 16.3c0.2 0.9 0.3 2.4 0.4 3.5 0 0.6 0 1.2 0 1.6q0 0.3 0 0.4 0 0.1 0 0.2 0 0.1 0 0.2 0 0.1 0 0.4c0 0.4 0 1 0 1.5-0.1 1.2-0.2 2.7-0.4 3.6-0.3 0.9-1 1.6-2 1.9-0.4 0.1-1.2 0.2-2.1 0.3-1 0-2.1 0.1-3.1 0.1-1 0-2 0-2.7 0.1q-0.6 0-0.9 0-0.2 0-0.2 0h-0.1-0.1q-0.1 0-0.3 0-0.3 0-0.8 0c-0.7-0.1-1.7-0.1-2.7-0.1-1.1 0-2.2-0.1-3.1-0.1-1-0.1-1.8-0.2-2.2-0.3-0.9-0.3-1.7-1-1.9-1.9-0.3-0.9-0.4-2.4-0.4-3.6-0.1-0.5-0.1-1.1-0.1-1.5q0-0.3 0-0.4 0-0.1 0-0.2 0-0.1 0-0.2 0-0.1 0-0.4c0-0.4 0-1 0.1-1.6 0-1.1 0.1-2.6 0.4-3.5 0.2-0.9 1-1.6 1.9-1.9 0.4-0.1 1.2-0.2 2.2-0.3 0.9 0 2-0.1 3.1-0.1 1 0 2 0 2.7-0.1q0.5 0 0.8 0 0.2 0 0.3 0h0.1 0.1q0 0 0.2 0 0.3 0 0.9 0c0.7 0.1 1.7 0.1 2.7 0.1 1 0 2.1 0.1 3.1 0.1 0.9 0.1 1.7 0.2 2.1 0.3 1 0.3 1.7 1 2 1.9zm-13.7 9.7l0.3-0.2 6.2-3.6 0.3-0.2-0.3-0.2-6.2-3.6-0.3-0.2z"/>
	</g>
</svg>